<?xml version="1.0" standalone="no"?>
<!DOCTYPE svg PUBLIC "-//W3C//DTD SVG 20010904//EN"
 "http://www.w3.org/TR/2001/REC-SVG-20010904/DTD/svg10.dtd">
<svg version="1.0" xmlns="http://www.w3.org/2000/svg"
 width="640.000000pt" height="640.000000pt" viewBox="0 0 640.000000 640.000000"
 preserveAspectRatio="xMidYMid meet">
<metadata>
Created by potrace 1.14, written by Peter Selinger 2001-2017
</metadata>
<g transform="translate(0.000000,640.000000) scale(0.100000,-0.100000)"
fill="#000000" stroke="none">
<path d="M3000 6377 c-3 -2 -44 -7 -93 -11 -48 -3 -97 -8 -110 -10 -12 -3 -40
-7 -62 -10 -46 -6 -138 -22 -175 -30 -86 -18 -174 -40 -235 -58 -38 -12 -74
-23 -80 -24 -94 -23 -325 -118 -493 -204 -125 -63 -326 -183 -369 -220 -10 -8
-31 -23 -46 -33 -16 -10 -36 -24 -45 -32 -9 -7 -53 -42 -97 -76 -181 -143
-565 -556 -565 -608 0 -6 -13 -24 -30 -39 -68 -62 -265 -418 -350 -632 -37
-92 -116 -327 -125 -371 -2 -8 -10 -44 -19 -80 -23 -96 -46 -213 -52 -272 -3
-28 -8 -55 -10 -58 -9 -16 -19 -222 -19 -414 0 -221 9 -379 24 -432 5 -17 7
-33 5 -36 -13 -13 73 -376 133 -557 94 -287 300 -676 470 -890 6 -8 40 -51 74
-95 83 -105 352 -374 459 -459 47 -37 93 -73 102 -81 9 -7 29 -22 45 -32 15
-10 36 -25 45 -33 67 -61 388 -237 582 -320 233 -100 550 -189 771 -216 22 -2
45 -6 52 -9 74 -26 673 -26 828 -1 17 3 62 10 100 16 335 54 631 151 929 302
115 59 261 143 329 190 68 48 212 153 217 159 3 3 32 28 65 54 154 123 416
408 558 607 161 225 329 560 417 827 28 87 54 176 50 176 -1 0 3 13 9 28 6 15
13 42 16 60 4 18 12 61 20 97 17 81 26 134 31 184 2 21 6 41 9 46 10 16 20
218 20 410 0 257 -13 419 -45 575 -6 28 -12 64 -15 80 -2 17 -16 75 -30 130
-14 55 -28 107 -30 115 -13 55 -79 238 -118 330 -6 14 -11 27 -12 30 -49 141
-263 510 -382 660 -6 8 -40 51 -75 95 -107 135 -283 311 -468 469 -170 145
-500 343 -752 452 -108 47 -371 138 -433 150 -5 1 -39 9 -75 17 -106 25 -227
49 -270 52 -8 1 -40 5 -70 10 -30 4 -71 10 -90 12 -56 7 -515 16 -520 10z
m477 -330 c4 -3 42 -8 83 -12 83 -8 115 -13 115 -15 0 -1 14 -3 31 -5 17 -3
71 -14 120 -26 49 -11 97 -22 107 -24 10 -2 57 -16 105 -31 48 -15 89 -28 92
-29 6 -2 17 -6 125 -47 253 -96 532 -260 770 -452 57 -46 326 -312 371 -367
91 -111 208 -272 226 -311 7 -16 16 -28 19 -28 4 0 9 -8 13 -17 3 -10 19 -40
36 -68 36 -59 128 -246 160 -325 12 -30 26 -64 31 -75 39 -90 108 -327 124
-428 3 -16 7 -32 9 -36 3 -4 8 -30 11 -57 4 -27 8 -56 10 -64 2 -8 7 -42 10
-75 4 -33 10 -87 13 -120 9 -75 7 -405 -3 -505 -10 -107 -11 -111 -19 -158 -4
-23 -9 -52 -11 -65 -6 -50 -26 -146 -46 -217 -11 -41 -22 -84 -24 -95 -15 -73
-127 -361 -190 -485 -34 -68 -159 -283 -177 -305 -4 -5 -31 -41 -59 -80 -27
-38 -55 -77 -62 -85 -7 -8 -30 -37 -52 -65 -45 -56 -285 -300 -356 -361 -81
-70 -95 -81 -205 -158 -60 -42 -114 -80 -121 -86 -7 -5 -14 -10 -17 -10 -3 0
-32 -16 -65 -35 -33 -20 -64 -35 -67 -35 -4 1 -10 -3 -13 -8 -13 -20 -371
-181 -439 -197 -9 -3 -62 -18 -117 -35 -98 -31 -256 -68 -325 -76 -19 -3 -42
-7 -50 -9 -8 -3 -41 -7 -74 -10 -32 -4 -87 -9 -121 -14 -74 -9 -439 -7 -510 3
-27 3 -68 8 -90 11 -22 3 -51 7 -65 9 -14 3 -41 7 -60 10 -79 12 -174 34 -375
89 -32 9 -124 41 -150 53 -16 7 -70 29 -120 49 -197 80 -420 212 -625 369
-106 80 -401 366 -456 441 -16 22 -31 42 -34 45 -17 15 -105 138 -157 220 -97
151 -103 161 -103 176 0 8 -4 14 -8 14 -5 0 -30 44 -55 98 -51 109 -90 195
-91 202 -1 3 -9 28 -19 55 -22 60 -29 79 -27 83 0 1 -7 16 -15 32 -9 17 -13
30 -11 30 3 0 -2 16 -10 35 -8 19 -14 36 -13 37 1 2 -5 28 -14 58 -13 45 -32
133 -52 237 -2 10 -4 18 -5 18 -1 0 -3 23 -6 50 -3 28 -7 61 -10 75 -18 91
-26 483 -12 595 4 33 10 89 13 125 4 35 8 67 10 70 2 3 6 30 10 60 4 30 9 59
12 63 2 4 6 20 8 35 6 39 11 60 30 124 9 31 18 68 21 82 7 41 71 218 120 333
97 228 231 452 391 653 74 93 355 379 418 426 22 16 42 31 45 34 25 28 245
179 339 233 157 90 465 226 571 252 51 13 71 19 100 30 19 7 40 14 45 14 23 4
63 13 99 22 22 6 52 12 67 14 15 2 55 9 89 15 34 6 83 13 108 16 26 2 76 8
112 12 71 8 503 8 517 -1z"/>
<path d="M2938 3579 l-3 -1550 -125 121 c-69 67 -280 273 -469 458 -189 186
-375 368 -414 406 -68 66 -71 68 -86 48 -29 -36 -166 -213 -196 -254 l-30 -40
357 -352 c196 -193 553 -544 793 -781 240 -236 440 -430 445 -430 19 0 1591
1558 1586 1571 -4 11 -196 264 -221 292 -13 15 19 45 -505 -468 -171 -168
-378 -369 -458 -447 l-147 -143 -3 1560 -2 1560 -260 0 -260 0 -2 -1551z"/>
<path d="M3374 1254 c-18 -14 -18 -15 4 -4 12 6 22 13 22 15 0 8 -5 6 -26 -11z"/>
</g>
</svg>
